# xmcd
#
# Track frame offsets: 
#        300
#        27006
#        47170
#        70722
#        85030
#        106055
#        129465
#        150073
#        161938
#        182605
#        196230
#        211744
#        225202
#
# Disc length: 3242 seconds
#
# Revision: 1
# Processed by: cddbd v1.5.2PL0 Copyright (c) Steve Scherf et al.
# Submitted via: ExactAudioCopy v0.95b4
#
DISCID=910ca60d
DTITLE=Herwig Mitteregger - Insolito
DYEAR=1900
DGENRE=Rock
TTITLE0=Schiff
TTITLE1=Lass dir nix erzähln
TTITLE2=Leicht
TTITLE3=Kleiner Campeon
TTITLE4=Glaspalast 2007
TTITLE5=Weh!
TTITLE6=Glückskind
TTITLE7=War ja klar
TTITLE8=Deal
TTITLE9=Wenn du hier warst 
TTITLE10=Chrosmaeister
TTITLE11=Segeln im Regen
TTITLE12=Bis später
EXTD=
EXTT0=
EXTT1=
EXTT2=
EXTT3=
EXTT4=
EXTT5=
EXTT6=
EXTT7=
EXTT8=
EXTT9=
EXTT10=
EXTT11=
EXTT12=
PLAYORDER=
